REM DIRINDEX 1\5,1\2\6,1\2\7,1\3\8,1\3\9,1\4\10,1\4\11,1\4\12
REM DIRNAME cjc026,folder01,folder02,folder03,folder04,folder05,folder06,folder07,folder08,folder09,folder10,folder11
TITLE ""
FILE "EJE_DB3000_5th_1A_13.mp3" MP3
  TRACK 01 AUDIO
    TITLE "0:"
    INDEX 01 00:00:00
  TRACK 02 AUDIO
    TITLE "10:cjc026_07224"
    INDEX 01 00:00:08
  TRACK 03 AUDIO
    TITLE "0:"
    INDEX 01 00:01:14
  TRACK 04 AUDIO
    TITLE "11:cjc026_07225"
    INDEX 01 00:01:49
  TRACK 05 AUDIO
    TITLE "0:"
    INDEX 01 00:03:04
  TRACK 06 AUDIO
    TITLE "12:cjc026_07226"
    INDEX 01 00:03:42
  TRACK 07 AUDIO
    TITLE "0:"
    INDEX 01 00:04:48
  TRACK 08 AUDIO
    TITLE "10:cjc026_07227"
    INDEX 01 00:05:11
  TRACK 09 AUDIO
    TITLE "0:"
    INDEX 01 00:06:25
  TRACK 10 AUDIO
    TITLE "11:cjc026_07228"
    INDEX 01 00:06:60
  TRACK 11 AUDIO
    TITLE "0:"
    INDEX 01 00:08:29
  TRACK 12 AUDIO
    TITLE "12:cjc026_07229"
    INDEX 01 00:08:61
  TRACK 13 AUDIO
    TITLE "0:"
    INDEX 01 00:10:06
  TRACK 14 AUDIO
    TITLE "10:cjc026_07230"
    INDEX 01 00:10:41
  TRACK 15 AUDIO
    TITLE "0:"
    INDEX 01 00:11:52
  TRACK 16 AUDIO
    TITLE "11:cjc026_07231"
    INDEX 01 00:12:15
  TRACK 17 AUDIO
    TITLE "0:"
    INDEX 01 00:13:69
  TRACK 18 AUDIO
    TITLE "12:cjc026_07232"
    INDEX 01 00:14:30
  TRACK 19 AUDIO
    TITLE "0:"
    INDEX 01 00:15:41
  TRACK 20 AUDIO
    TITLE "10:cjc026_07233"
    INDEX 01 00:16:04
  TRACK 21 AUDIO
    TITLE "0:"
    INDEX 01 00:17:15
  TRACK 22 AUDIO
    TITLE "11:cjc026_07234"
    INDEX 01 00:17:50
  TRACK 23 AUDIO
    TITLE "0:"
    INDEX 01 00:19:08
  TRACK 24 AUDIO
    TITLE "12:cjc026_07235"
    INDEX 01 00:19:43
  TRACK 25 AUDIO
    TITLE "0:"
    INDEX 01 00:20:57
  TRACK 26 AUDIO
    TITLE "10:cjc026_07236"
    INDEX 01 00:21:18
  TRACK 27 AUDIO
    TITLE "0:"
    INDEX 01 00:23:32
  TRACK 28 AUDIO
    TITLE "11:cjc026_07237"
    INDEX 01 00:23:67
  TRACK 29 AUDIO
    TITLE "0:"
    INDEX 01 00:25:33
  TRACK 30 AUDIO
    TITLE "12:cjc026_07238"
    INDEX 01 00:25:69
  TRACK 31 AUDIO
    TITLE "0:"
    INDEX 01 00:28:11
  TRACK 32 AUDIO
    TITLE "10:cjc026_07239"
    INDEX 01 00:28:46
  TRACK 33 AUDIO
    TITLE "0:"
    INDEX 01 00:30:34
  TRACK 34 AUDIO
    TITLE "11:cjc026_07240"
    INDEX 01 00:30:69
  TRACK 35 AUDIO
    TITLE "0:"
    INDEX 01 00:32:38
  TRACK 36 AUDIO
    TITLE "12:cjc026_07241"
    INDEX 01 00:32:73
  TRACK 37 AUDIO
    TITLE "0:"
    INDEX 01 00:34:60
  TRACK 38 AUDIO
    TITLE "10:cjc026_07242"
    INDEX 01 00:35:23
  TRACK 39 AUDIO
    TITLE "0:"
    INDEX 01 00:36:29
  TRACK 40 AUDIO
    TITLE "11:cjc026_07243"
    INDEX 01 00:36:67
  TRACK 41 AUDIO
    TITLE "0:"
    INDEX 01 00:38:14
  TRACK 42 AUDIO
    TITLE "12:cjc026_07244"
    INDEX 01 00:38:49
  TRACK 43 AUDIO
    TITLE "0:"
    INDEX 01 00:39:53
  TRACK 44 AUDIO
    TITLE "10:cjc026_07245"
    INDEX 01 00:40:18
  TRACK 45 AUDIO
    TITLE "0:"
    INDEX 01 00:41:32
  TRACK 46 AUDIO
    TITLE "11:cjc026_07246"
    INDEX 01 00:41:67
  TRACK 47 AUDIO
    TITLE "0:"
    INDEX 01 00:43:23
  TRACK 48 AUDIO
    TITLE "12:cjc026_07247"
    INDEX 01 00:43:58
  TRACK 49 AUDIO
    TITLE "0:"
    INDEX 01 00:44:69
  TRACK 50 AUDIO
    TITLE "10:cjc026_07248"
    INDEX 01 00:45:29
  TRACK 51 AUDIO
    TITLE "0:"
    INDEX 01 00:46:46
  TRACK 52 AUDIO
    TITLE "11:cjc026_07249"
    INDEX 01 00:47:09
  TRACK 53 AUDIO
    TITLE "0:"
    INDEX 01 00:48:74
  TRACK 54 AUDIO
    TITLE "12:cjc026_07250"
    INDEX 01 00:49:34
  TRACK 55 AUDIO
    TITLE "0:"
    INDEX 01 00:50:54
  TRACK 56 AUDIO
    TITLE "10:cjc026_07251"
    INDEX 01 00:51:14
  TRACK 57 AUDIO
    TITLE "0:"
    INDEX 01 00:52:31
  TRACK 58 AUDIO
    TITLE "11:cjc026_07252"
    INDEX 01 00:52:66
  TRACK 59 AUDIO
    TITLE "0:"
    INDEX 01 00:54:13
  TRACK 60 AUDIO
    TITLE "12:cjc026_07253"
    INDEX 01 00:54:45
  TRACK 61 AUDIO
    TITLE "0:"
    INDEX 01 00:55:62
